# xmcd
#
# Track frame offsets: 
#        150
#        12977
#        26174
#        38648
#        54740
#        73947
#        95339
#        114181
#        132075
#        149903
#        166863
#        190589
#        205002
#        221311
#        235221
#
# Disc length: 3374 seconds
#
# Revision: 0
# Processed by: cddbd v1.5.2PL0 Copyright (c) Steve Scherf et al.
# Submitted via: ExactAudioCopyFreeDBPlugin 1.0
#
DISCID=d00d2c0f
DTITLE=Paul Lamb and The King Snakes - Hole In The Wall
DYEAR=2014
DGENRE=Blues
TTITLE0=Hole In The Wall
TTITLE1=Sometime Tomorrow
TTITLE2=Preaching The Blues
TTITLE3=Jumpin' Little Judy
TTITLE4=A Place To Be
TTITLE5=The Pillow (Part 2)
TTITLE6=You Really Got A Hold On Me
TTITLE7=Send For Me
TTITLE8=Way Down Low
TTITLE9=Consultation Man
TTITLE10=Mr Lamb's Groove Walk
TTITLE11=Tears Of Joy
TTITLE12=Making A Change
TTITLE13=Stranger Blues
TTITLE14=Still Got The Blues For You
EXTD=
EXTT0=
EXTT1=
EXTT2=
EXTT3=
EXTT4=
EXTT5=
EXTT6=
EXTT7=
EXTT8=
EXTT9=
EXTT10=
EXTT11=
EXTT12=
EXTT13=
EXTT14=
PLAYORDER=
